<?xml version="1.0" encoding="UTF-8" standalone="no"?>
<!DOCTYPE svg PUBLIC "-//W3C//DTD SVG 1.1//EN" "http://www.w3.org/Graphics/SVG/1.1/DTD/svg11.dtd">
<svg width="100%" height="100%" viewBox="0 0 200 40" version="1.1" xmlns="http://www.w3.org/2000/svg" xmlns:xlink="http://www.w3.org/1999/xlink" xml:space="preserve" xmlns:serif="http://www.serif.com/" style="fill-rule:evenodd;clip-rule:evenodd;stroke-linecap:round;stroke-linejoin:round;stroke-miterlimit:10;">
    <g transform="matrix(0.252273,0,0,0.252273,102.925,26.0576)">
        <g transform="matrix(1,0,0,1,-640,-360)">
            <g>
                <rect x="0" y="0" width="1280" height="720" style="fill:white;"/>
                <g transform="matrix(1,0,0,1,317.251,356)">
                    <text x="0px" y="0px" style="font-family:'LucidaGrande', 'Lucida Grande', sans-serif;font-weight:500;font-size:107px;fill:rgb(237,125,49);">V</text>
                </g>
                <g transform="matrix(1,0,0,1,392.084,356)">
                    <text x="0px" y="0px" style="font-family:'LucidaGrande', 'Lucida Grande', sans-serif;font-weight:500;font-size:107px;fill:rgb(127,127,127);">ERTEX</text>
                </g>
                <g transform="matrix(1,0,0,1,734.084,356)">
                    <text x="0px" y="0px" style="font-family:'LucidaGrande', 'Lucida Grande', sans-serif;font-weight:500;font-size:107px;fill:rgb(237,125,49);">G</text>
                </g>
                <g transform="matrix(1,0,0,1,809.084,356)">
                    <text x="0px" y="0px" style="font-family:'LucidaGrande', 'Lucida Grande', sans-serif;font-weight:500;font-size:107px;fill:rgb(127,127,127);">PR</text>
                </g>
                <path d="M558.393,365.715C557.225,377.804 546.924,386.612 535.385,385.388C525.536,384.344 517.72,376.235 516.628,365.927" style="fill:none;stroke:rgb(237,125,49);stroke-width:7.33px;"/>
                <path d="M578.87,374.778C574.842,396.27 552.831,410.658 529.707,406.914C512.44,404.119 498.789,391.758 495.334,375.787" style="fill:none;stroke:rgb(237,125,49);stroke-width:7.33px;stroke-linejoin:miter;stroke-miterlimit:8;"/>
            </g>
        </g>
    </g>
</svg>
